<svg width="336" height="109" viewBox="0 0 336 109" fill="none" xmlns="http://www.w3.org/2000/svg">
<path d="M278.453 15.5091C234.438 15.5091 190.754 15.4133 147.237 23.3417C117.999 28.6686 89.317 36.3843 61.7371 47.6427C43.1768 55.2192 21.0168 63.5872 6.43386 78.1696C-15.9857 100.588 37.5722 103.379 47.6024 104.328C119.606 111.146 195.509 109.471 265.702 90.7218C282.098 86.3419 298.921 81.5245 314.629 74.9562C320.393 72.5464 333.257 68.0664 334.843 60.5463C336.239 53.927 327.981 49.0875 323.525 46.4879C304.066 35.134 281.634 27.6565 260.463 20.4296C225.486 8.4898 187.561 -0.261881 150.4 1.14941C147.299 1.26718 136.088 1.10829 134.338 4.66402" stroke="#FFF7E1" stroke-width="2" stroke-linecap="round"/>
</svg>
