<svg width="40" height="40" viewBox="0 0 40 40" fill="none" xmlns="http://www.w3.org/2000/svg">
<path d="M9.66376 20.7072L9.66372 20.2874L9.95466 20.2875L10.0587 20.7037L9.66376 20.7072ZM15.3029 38.4034L15.305 38.3954L15.7792 37.7138C16.2326 38.1364 16.7128 38.4997 17.2179 38.7902C16.5737 38.694 15.9345 38.5649 15.3029 38.4034ZM20.2949 38.9981V38.5095H20.7229H20.723L20.8056 38.9843C20.6354 38.9912 20.4651 38.9958 20.2949 38.9981ZM22.7803 38.801C23.2927 38.5086 23.7795 38.1412 24.2389 37.7131L24.7149 38.3985L24.7186 38.4132C24.0773 38.5769 23.4303 38.7061 22.7803 38.801ZM22.7841 1.20325C23.4372 1.29971 24.0823 1.42995 24.7171 1.59271L24.7129 1.60888L24.2391 2.28915C23.7808 1.86201 23.2952 1.49534 22.7841 1.20325ZM15.3001 1.59089C15.9276 1.43221 16.5718 1.30278 17.2319 1.20453C16.7216 1.49635 16.2366 1.86254 15.7789 2.28904L15.304 1.60573L15.3001 1.59089ZM30.3546 19.7157H30.0614L29.9592 19.2994L30.3546 19.296V19.7157Z" fill="#FFF7E1" stroke="#FFF7E1" stroke-width="2"/>
</svg>
