<svg width="36" height="36" viewBox="0 0 36 36" fill="none" xmlns="http://www.w3.org/2000/svg">
<circle cx="18" cy="18" r="17" stroke="black" stroke-width="2"/>
<path d="M23.9617 13.8571V12.8241H23.25V12H19.295V12.8241H18.4667V13.8571H17.5333V12.8241H16.6V12H12.75V12.8241H11.9333V13.8571H11V17.5715H11.9333V19.4287L12.75 19.4286V20.4617H13.6833V21.4019H14.7333V22.2143H15.6667V23.1429H16.6V24.0715H17.5333V25H18.4666L18.4667 24.0715H19.295V23.1429H20.3333V22.2143H21.3717V21.4019H22.2V20.4733L23.25 20.4732V19.4286H23.9734V17.5715H25V13.8571L23.9617 13.8571ZM15.6667 13.8571H13.8V17.4668H12.75V13.8571H13.8V12.8241H15.6667V13.8571Z" fill="black"/>
</svg>
