<svg width="20" height="20" viewBox="0 0 20 20" fill="none" xmlns="http://www.w3.org/2000/svg">
<path d="M10 0C7.28417 0 6.94362 0.0115215 5.877 0.0601678C4.81262 0.108725 4.08569 0.277796 3.4496 0.524957C2.79201 0.780514 2.23434 1.12247 1.67842 1.67839C1.12247 2.23431 0.780514 2.79204 0.524987 3.44963C0.277766 4.08569 0.108755 4.81262 0.060138 5.877C0.0114917 6.94362 0 7.28417 0 10C0 12.7158 0.0114917 13.0564 0.060138 14.123C0.108755 15.1874 0.277766 15.9143 0.524987 16.5504C0.780544 17.208 1.1225 17.7656 1.67842 18.3216C2.23437 18.8775 2.79201 19.2195 3.4496 19.475C4.08569 19.7222 4.81262 19.8912 5.877 19.9398C6.94362 19.9885 7.28417 20 10 20C12.7158 20 13.0564 19.9885 14.123 19.9398C15.1874 19.8913 15.9143 19.7222 16.5504 19.475C17.208 19.2195 17.7656 18.8775 18.3216 18.3216C18.8775 17.7656 19.2195 17.208 19.475 16.5504C19.7222 15.9143 19.8913 15.1874 19.9398 14.123C19.9885 13.0564 20 12.7158 20 10C20 7.28417 19.9885 6.94362 19.9398 5.877C19.8913 4.81262 19.7222 4.08569 19.475 3.44963C19.2195 2.79204 18.8775 2.23431 18.3216 1.67839C17.7656 1.12247 17.208 0.780514 16.5504 0.524957C15.9143 0.277796 15.1874 0.108725 14.123 0.0601678C13.0564 0.0115215 12.7158 0 10 0ZM10 1.80179C12.6701 1.80179 12.9864 1.812 14.0409 1.86011C15.0159 1.90456 15.5454 2.06747 15.8977 2.20442C16.3645 2.38584 16.6976 2.60252 17.0475 2.95245C17.3975 3.30238 17.6142 3.63552 17.7956 4.10228C17.9325 4.45465 18.0954 4.98416 18.1399 5.95914C18.188 7.01361 18.1982 7.3299 18.1982 10C18.1982 12.6701 18.188 12.9864 18.1399 14.0409C18.0954 15.0159 17.9325 15.5454 17.7956 15.8977C17.6142 16.3645 17.3975 16.6976 17.0475 17.0475C16.6976 17.3975 16.3645 17.6142 15.8977 17.7956C15.5454 17.9325 15.0158 18.0954 14.0409 18.1399C12.9866 18.188 12.6703 18.1982 10 18.1982C7.32969 18.1982 7.01349 18.188 5.95914 18.1399C4.98413 18.0954 4.45465 17.9325 4.10231 17.7956C3.63549 17.6142 3.30238 17.3975 2.95248 17.0475C2.60255 16.6976 2.38584 16.3645 2.20442 15.8977C2.06747 15.5454 1.90459 15.0158 1.86011 14.0409C1.812 12.9864 1.80179 12.6701 1.80179 10C1.80179 7.3299 1.812 7.01361 1.86011 5.95914C1.90459 4.98413 2.06747 4.45465 2.20442 4.10231C2.38584 3.63549 2.60255 3.30238 2.95245 2.95248C3.30238 2.60252 3.63552 2.38584 4.10228 2.20442C4.45465 2.06747 4.98416 1.90456 5.95914 1.86011C7.01361 1.812 7.3299 1.80179 10 1.80179" fill="#FFF7E1"/>
<path d="M10.0023 13.3338C8.16135 13.3338 6.66898 11.8414 6.66898 10.0005C6.66898 8.15948 8.16135 6.6671 10.0023 6.6671C11.8433 6.6671 13.3357 8.15948 13.3357 10.0005C13.3357 11.8414 11.8433 13.3338 10.0023 13.3338ZM10.0023 4.86532C7.16625 4.86532 4.86719 7.16437 4.86719 10.0005C4.86719 12.8365 7.16625 15.1356 10.0023 15.1356C12.8384 15.1356 15.1375 12.8365 15.1375 10.0005C15.1375 7.16437 12.8384 4.86532 10.0023 4.86532ZM16.5404 4.66242C16.5404 5.32519 16.0031 5.86242 15.3403 5.86242C14.6776 5.86242 14.1403 5.32519 14.1403 4.66242C14.1403 3.99968 14.6776 3.4624 15.3403 3.4624C16.0031 3.4624 16.5404 3.99968 16.5404 4.66242Z" fill="#FFF7E1"/>
</svg>
