<svg width="18" height="24" viewBox="0 0 18 24" fill="none" xmlns="http://www.w3.org/2000/svg">
<path d="M8.99956 0C11.4846 0 13.7351 0.936738 15.3637 2.45058C16.9925 3.96459 18 6.05653 18 8.36629C18 12.1365 15.7699 14.5992 13.2859 17.3455C12.5645 18.1421 11.82 18.9642 11.1076 19.8481C12.2016 19.9498 13.164 20.1286 13.9012 20.3596C15.0281 20.7128 15.7076 21.2373 15.7076 21.8759C15.7076 22.4478 15.1771 22.9234 14.2723 23.2659C13.5212 23.5504 12.4576 23.7721 11.2198 23.893C10.8709 23.9266 10.5066 23.9541 10.1307 23.9717C9.7442 23.99 9.3657 24 8.99961 24C7.2517 24 5.65832 23.8119 4.49679 23.5076C3.13466 23.1506 2.29236 22.5785 2.29236 21.8766C2.29236 21.2382 2.97093 20.7135 4.09883 20.3603C4.83596 20.1293 5.79836 19.9505 6.89237 19.8488C6.17992 18.9649 5.43555 18.143 4.71414 17.3462C2.2291 14.6005 0 12.1382 0 8.367C0 6.05706 1.00774 3.96508 2.63633 2.45129C4.2651 0.937266 6.51639 0.00070957 9.00044 0.00070957L8.99956 0ZM10.3659 20.8115C10.0559 21.2343 9.75637 21.6725 9.47346 22.1289C9.32371 22.3721 8.98901 22.4553 8.72811 22.3162C8.6409 22.2697 8.57338 22.2046 8.52652 22.1289C8.2427 21.6723 7.94338 21.2343 7.63409 20.8115C6.35818 20.8887 5.24698 21.073 4.44581 21.3239C3.78693 21.5303 3.3897 21.7276 3.3897 21.8759C3.3897 22.0647 3.92598 22.301 4.79296 22.5273C5.85979 22.8064 7.34702 22.9799 9.00048 22.9799C9.38797 22.9799 9.74735 22.9716 10.0755 22.9563C10.4326 22.9394 10.7781 22.9141 11.1095 22.8821C12.2388 22.7712 13.198 22.5731 13.8619 22.3225C14.3341 22.1443 14.6113 21.9861 14.6113 21.8768C14.6113 21.7285 14.214 21.5312 13.5551 21.3247C12.754 21.0739 11.6427 20.8897 10.3669 20.8124L10.3659 20.8115ZM9.62647 20.0193C9.63718 20.004 9.64866 19.988 9.66109 19.9742C10.5595 18.7821 11.5234 17.717 12.4504 16.6925C14.7972 14.0997 16.903 11.7739 16.903 8.36733C16.903 6.33811 16.0178 4.50072 14.5882 3.17162C13.1585 1.8427 11.1819 1.01993 8.99863 1.01993C6.8156 1.01993 4.83973 1.8427 3.4091 3.17162C1.97945 4.50054 1.09431 6.33793 1.09431 8.36733C1.09431 11.7737 3.20008 14.0996 5.54684 16.6925C6.47561 17.7177 7.44124 18.7851 8.34038 19.9788L8.36754 20.0147C8.58232 20.3008 8.7929 20.5936 8.99754 20.8956C9.20161 20.5951 9.41123 20.3038 9.6243 20.0193L9.62647 20.0193ZM8.99971 4.37302C10.2163 4.37302 11.3193 4.83261 12.1197 5.57501L12.123 5.57803C12.9217 6.32116 13.4153 7.3466 13.4153 8.47663C13.4153 9.60912 12.9209 10.636 12.1222 11.3784L12.0911 11.4053C11.2939 12.1324 10.2024 12.5804 9.00072 12.5804C7.78411 12.5804 6.68015 12.1201 5.87996 11.3768C5.08051 10.6351 4.58515 9.60825 4.58515 8.47594C4.58515 7.34505 5.07958 6.31979 5.87825 5.57575L5.8815 5.57273C6.68096 4.83033 7.78413 4.37142 8.99981 4.37142L8.99971 4.37302ZM11.3474 6.2952C10.7478 5.73785 9.91775 5.39296 8.99971 5.39296C8.08166 5.39296 7.2518 5.73786 6.65373 6.29452C6.05316 6.85277 5.68232 7.62416 5.68232 8.47752C5.68232 9.32929 6.05413 10.1009 6.65373 10.6589C7.25254 11.2172 8.08264 11.5619 8.99971 11.5619C9.90531 11.5619 10.7254 11.2263 11.3218 10.6826L11.3465 10.659C11.947 10.1007 12.3179 9.32931 12.3179 8.47754C12.3179 7.62419 11.9468 6.85279 11.3472 6.29527L11.3474 6.2952Z" fill="#FFF7E1"/>
</svg>
