<svg width="86" height="86" viewBox="0 0 86 86" fill="none" xmlns="http://www.w3.org/2000/svg">
<g clip-path="url(#clip0_237_3253)">
<path d="M35.508 50.492C39.3407 54.3248 41.71 59.8488 41.71 66.263C41.71 76.2204 40.162 80.0531 40.162 83.162C40.162 85.2131 41.4319 86 43 86C44.5681 86 45.838 85.2131 45.838 83.162C45.838 80.0531 44.29 76.2204 44.29 66.263C44.29 59.8488 46.6593 54.3248 50.492 50.492C54.3248 46.6593 59.8488 44.29 66.263 44.29C76.2204 44.29 80.0531 45.838 83.162 45.838C85.2131 45.838 86 44.5681 86 43C86 41.4319 85.2131 40.162 83.162 40.162C80.0531 40.162 76.2204 41.71 66.263 41.71C59.8488 41.71 54.3248 39.3407 50.492 35.508C46.6593 31.6752 44.29 26.1512 44.29 19.737C44.29 9.77963 45.838 5.9469 45.838 2.838C45.838 0.7869 44.5681 0 43 0C41.4319 0 40.162 0.7869 40.162 2.838C40.162 5.9469 41.71 9.77963 41.71 19.737C41.71 26.1512 39.3407 31.6752 35.508 35.508C31.6752 39.3407 26.1512 41.71 19.737 41.71C9.77963 41.71 5.9469 40.162 2.838 40.162C0.7869 40.162 0 41.4319 0 43C0 44.5681 0.7869 45.838 2.838 45.838C5.9469 45.838 9.77963 44.29 19.737 44.29C26.1512 44.29 31.6752 46.6593 35.508 50.492Z" fill="black"/>
</g>
<defs>
<clipPath id="clip0_237_3253">
<rect width="86" height="86" fill="white"/>
</clipPath>
</defs>
</svg>
