<svg width="151" height="27" viewBox="0 0 151 27" fill="none" xmlns="http://www.w3.org/2000/svg">
<path d="M135.133 0.0303718C131.933 0.28323 129.158 1.45436 126.846 3.52381C125.295 4.9112 124.004 6.89081 123.296 8.96026C122.291 11.9014 122.344 15.5346 123.439 18.4225C125.242 23.1935 129.574 26.4308 134.817 26.9232C137.326 27.1594 139.705 26.85 141.854 26.0082C142.393 25.7986 143.551 25.2064 144.06 24.8803C145.524 23.9488 146.742 22.7976 147.723 21.4268C149.353 19.1411 150.188 16.4562 150.188 13.4851C150.188 10.4708 149.317 7.73256 147.613 5.40361C146.738 4.20586 145.667 3.17779 144.416 2.33937C142.376 0.968609 140.207 0.229997 137.632 0.0270447C137.143 -0.00955315 135.629 -0.00955315 135.133 0.0303718ZM137 5.61654C139.585 5.82282 141.714 7.17361 142.969 9.40276C143.847 10.9665 144.18 13.0193 143.867 14.949C143.444 17.5674 141.844 19.7067 139.545 20.7381C137.319 21.7329 134.541 21.5732 132.458 20.3322C130.406 19.1045 129.078 16.9486 128.825 14.4233C128.762 13.7779 128.802 12.5602 128.905 11.9713C129.358 9.42605 130.815 7.43313 133.004 6.36513C134.202 5.77957 135.646 5.51007 137 5.61654Z" fill="#FFF7E1"/>
<path d="M37 13.4852V26.4109H40.0276H43.0553V13.4852V0.559477H40.0276H37V13.4852Z" fill="#FFF7E1"/>
<path d="M49.0469 13.4852V26.4109H52.0412H55.0356L55.0423 18.8584L55.0523 11.3026L60.3756 18.8551L65.6989 26.4109H68.4371H71.172V13.4852V0.559477H68.1776H65.1832L65.1766 8.11195L65.1666 15.6644L59.8432 8.11195L54.5199 0.559477H51.7851H49.0469V13.4852Z" fill="#FFF7E1"/>
<path d="M75.2344 3.37086V6.18224H78.7444H82.2545V16.2966V26.4109H85.2822H88.3098L88.3165 16.3032L88.3264 6.19888L91.8465 6.1889L95.3632 6.18224V3.37086V0.559477H85.2988H75.2344V3.37086Z" fill="#FFF7E1"/>
<path d="M99.3516 13.4819V26.4109H102.379H105.407V22.1356V17.8603H106.984H108.558L110.96 22.079C112.281 24.4013 113.379 26.3244 113.402 26.3577C113.438 26.4076 113.705 26.4109 116.809 26.4042L120.179 26.3943L117.328 21.5201C115.764 18.8385 114.473 16.6226 114.466 16.596C114.46 16.5627 114.536 16.5028 114.709 16.413C115.405 16.0537 116.057 15.5646 116.672 14.9524C117.634 13.9909 118.279 12.9362 118.695 11.6486C118.958 10.8268 119.065 10.1049 119.061 9.11007C119.061 8.30159 119.011 7.82582 118.862 7.15707C118.123 3.85328 115.405 1.35464 111.878 0.742461C110.95 0.579434 111.08 0.582761 105.067 0.569453L99.3516 0.556144V13.4819ZM110.381 6.20553C111.642 6.49498 112.41 7.16373 112.75 8.26166C112.836 8.54447 112.84 8.59437 112.84 9.20988C112.84 9.82539 112.836 9.8753 112.75 10.1581C112.497 10.9666 111.994 11.5621 111.249 11.9215C110.9 12.0911 110.584 12.1843 110.115 12.2542C109.845 12.2941 109.373 12.3041 107.596 12.3041H105.407V9.20655V6.11237L107.746 6.12568C109.965 6.13566 110.095 6.13899 110.381 6.20553Z" fill="#FFF7E1"/>
<path d="M11.1479 15.8522C12.3512 17.0555 13.095 18.7898 13.095 20.8035C13.095 23.9297 12.609 25.133 12.609 26.109C12.609 26.753 13.0077 27 13.5 27C13.9923 27 14.391 26.753 14.391 26.109C14.391 25.133 13.905 23.9297 13.905 20.8035C13.905 18.7898 14.6489 17.0555 15.8522 15.8522C17.0555 14.6489 18.7898 13.905 20.8035 13.905C23.9297 13.905 25.133 14.391 26.109 14.391C26.753 14.391 27 13.9923 27 13.5C27 13.0077 26.753 12.609 26.109 12.609C25.133 12.609 23.9297 13.095 20.8035 13.095C18.7898 13.095 17.0555 12.3512 15.8522 11.1479C14.6489 9.94455 13.905 8.21025 13.905 6.1965C13.905 3.07035 14.391 1.86705 14.391 0.891C14.391 0.24705 13.9923 0 13.5 0C13.0077 0 12.609 0.24705 12.609 0.891C12.609 1.86705 13.095 3.07035 13.095 6.1965C13.095 8.21025 12.3512 9.94455 11.1479 11.1479C9.94455 12.3512 8.21025 13.095 6.1965 13.095C3.07035 13.095 1.86705 12.609 0.891 12.609C0.24705 12.609 0 13.0077 0 13.5C0 13.9923 0.24705 14.391 0.891 14.391C1.86705 14.391 3.07035 13.905 6.1965 13.905C8.21025 13.905 9.94455 14.6489 11.1479 15.8522Z" fill="#FFF7E1"/>
</svg>
