<svg width="45" height="45" viewBox="0 0 45 45" fill="none" xmlns="http://www.w3.org/2000/svg">
<circle cx="22.5" cy="22.5" r="21" stroke="black" stroke-width="3"/>
<path d="M28.9964 14.9988V13.9953H28.0005V12.9994H26.9968L26.9969 11.9957H24.9974L24.9975 11H19.9951V11.9959H17.9955V12.9996H16.9996V13.9955H15.9959V15.9948H15V19.9936H18.9992V18.9977L18.9994 17.9944V16.9985H19.9953V15.9948H20.999V14.9989H24.002V15.9948H24.9979V16.9985H26.0016V19.9937H24.9979V20.9974H24.002V21.9932H21.9949L21.9947 22.9969H20.9988V29.9987H24.9977V24.9967H26.9973V24.0008H28.001L28.0008 22.9973H28.9967V20.9977H30V14.9993L28.9964 14.9988ZM28.9964 16.9984V19.9936H28.0005V21.9932H26.9968L26.9969 22.9969H26.001V24.0002H24.0015V28.9952H21.9944V24.0002H22.9981L22.9983 22.9969H24.9975V21.9932H26.0012V20.9973H26.9971V18.9977L26.9969 17.9943V15.9948H26.001V14.9989H24.9974L24.9975 13.9953H19.9951V14.9987H18.9992V15.9946H17.9955V18.9975H15.9959L15.9963 17.9944V16.9985H17V14.9989H17.9958L17.9957 13.9954H18.9994V12.9995H20.999L20.9988 11.9958H24.0017V12.9995H26.0013V13.9954H26.9972V14.9987H28.0009V15.9946H28.9968L28.9964 16.9984Z" fill="black"/>
<path d="M22.9996 30.9952H21V34.9943H24.9989V30.9952H22.9996ZM24.0031 32.9943V33.9982H21.996V31.9984H24.0031V32.9943Z" fill="black"/>
<rect x="16" y="17" width="1" height="1" fill="black"/>
<rect x="17" y="17" width="1" height="1" fill="black"/>
<rect x="17" y="17" width="1" height="1" fill="black"/>
<rect x="17" y="15" width="1" height="1" fill="black"/>
<rect x="18" y="14" width="1" height="1" fill="black"/>
<rect x="19" y="13" width="1" height="1" fill="black"/>
<rect x="21" y="12" width="1" height="1" fill="black"/>
<rect x="22" y="12" width="1" height="1" fill="black"/>
<rect x="23" y="12" width="1" height="1" fill="black"/>
<rect x="25" y="13" width="1" height="1" fill="black"/>
<rect x="24" y="13" width="1" height="1" fill="black"/>
<rect x="26" y="14" width="1" height="1" fill="black"/>
<rect x="27" y="15" width="1" height="1" fill="black"/>
<rect x="28" y="16" width="1" height="1" fill="black"/>
<rect x="27" y="17" width="1" height="1" fill="black"/>
<rect x="28" y="18" width="1" height="1" fill="black"/>
<rect x="27" y="19" width="1" height="1" fill="black"/>
<rect x="26" y="21" width="1" height="1" fill="black"/>
<rect x="27" y="21" width="1" height="1" fill="black"/>
<rect x="25" y="22" width="1" height="1" fill="black"/>
<rect x="23" y="23" width="1" height="1" fill="black"/>
<rect x="22" y="24" width="1" height="1" fill="black"/>
<rect x="22" y="25" width="1" height="1" fill="black"/>
<rect x="17" y="18" width="1" height="1" fill="black"/>
<rect x="17" y="16" width="1" height="1" fill="black"/>
<rect x="18" y="15" width="1" height="1" fill="black"/>
<rect x="19" y="14" width="1" height="1" fill="black"/>
<rect x="21" y="13" width="1" height="1" fill="black"/>
<rect x="20" y="13" width="1" height="1" fill="black"/>
<rect x="22" y="13" width="1" height="1" fill="black"/>
<rect x="23" y="13" width="1" height="1" fill="black"/>
<rect x="25" y="14" width="1" height="1" fill="black"/>
<rect x="26" y="15" width="1" height="1" fill="black"/>
<rect x="27" y="16" width="1" height="1" fill="black"/>
<rect x="28" y="17" width="1" height="1" fill="black"/>
<rect x="27" y="18" width="1" height="1" fill="black"/>
<rect x="28" y="19" width="1" height="1" fill="black"/>
<rect x="27" y="20" width="1" height="1" fill="black"/>
<rect x="26" y="22" width="1" height="1" fill="black"/>
<rect x="25" y="23" width="1" height="1" fill="black"/>
<rect x="23" y="24" width="1" height="1" fill="black"/>
<rect x="22" y="27" width="1" height="1" fill="black"/>
<rect x="23" y="27" width="1" height="1" fill="black"/>
<rect x="23" y="25" width="1" height="1" fill="black"/>
<rect x="22" y="28" width="1" height="1" fill="black"/>
<rect x="23" y="28" width="1" height="1" fill="black"/>
<rect x="22" y="32" width="1" height="1" fill="black"/>
<rect x="23" y="32" width="1" height="1" fill="black"/>
<rect x="23" y="33" width="1" height="1" fill="black"/>
<rect x="22" y="33" width="1" height="1" fill="black"/>
<rect x="23" y="26" width="1" height="1" fill="black"/>
<rect x="22" y="26" width="1" height="1" fill="black"/>
<rect x="24" y="23" width="1" height="1" fill="black"/>
<rect x="16" y="18" width="1" height="1" fill="black"/>
</svg>
