<svg width="33" height="26" viewBox="0 0 33 26" fill="none" xmlns="http://www.w3.org/2000/svg">
<path d="M15.12 0C7.08 1.19266 0 8.58716 0 16.578C0 22.1835 3.48 26 7.56 26C10.56 26 12.96 24.211 12.96 20.8716C12.96 19.0826 12 16.6972 8.64 15.9817C6.84 15.6239 3.96 14.9083 3.96 11.9266C3.96 6.6789 10.56 1.78899 15.24 0.715595L15.12 0ZM32.88 0C24.84 1.19266 17.76 8.58716 17.76 16.578C17.76 22.1835 21.24 26 25.32 26C28.32 26 30.72 24.211 30.72 20.8716C30.72 19.0826 29.76 16.6972 26.4 15.9817C24.6 15.6239 21.72 14.9083 21.72 11.9266C21.72 6.6789 28.32 1.78899 33 0.715595L32.88 0Z" fill="black"/>
</svg>
